<?xml version="1.0" encoding="UTF-8" standalone="no"?>
<!-- Created with Inkscape (http://www.inkscape.org/) -->

<svg
   xmlns:dc="http://purl.org/dc/elements/1.1/"
   xmlns:cc="http://creativecommons.org/ns#"
   xmlns:rdf="http://www.w3.org/1999/02/22-rdf-syntax-ns#"
   xmlns:svg="http://www.w3.org/2000/svg"
   xmlns="http://www.w3.org/2000/svg"
   xmlns:sodipodi="http://sodipodi.sourceforge.net/DTD/sodipodi-0.dtd"
   xmlns:inkscape="http://www.inkscape.org/namespaces/inkscape"
   width="190"
   height="100"
   viewBox="0 0 50.270831 26.458333"
   version="1.1"
   id="svg8"
   inkscape:version="0.92.4 (5da689c313, 2019-01-14)"
   sodipodi:docname="bone.svg">
  <defs
     id="defs2" />
  <sodipodi:namedview
     id="base"
     pagecolor="#ffffff"
     bordercolor="#666666"
     borderopacity="1.0"
     inkscape:pageopacity="0.0"
     inkscape:pageshadow="2"
     inkscape:zoom="5.6"
     inkscape:cx="84.184419"
     inkscape:cy="42.695816"
     inkscape:document-units="mm"
     inkscape:current-layer="g4909"
     showgrid="false"
     units="px"
     inkscape:window-width="2560"
     inkscape:window-height="1377"
     inkscape:window-x="-8"
     inkscape:window-y="-8"
     inkscape:window-maximized="1" />
  <metadata
     id="metadata5">
    <rdf:RDF>
      <cc:Work
         rdf:about="">
        <dc:format>image/svg+xml</dc:format>
        <dc:type
           rdf:resource="http://purl.org/dc/dcmitype/StillImage" />
        <dc:title></dc:title>
      </cc:Work>
    </rdf:RDF>
  </metadata>
  <g
     inkscape:label="Layer 1"
     inkscape:groupmode="layer"
     id="layer1"
     transform="translate(0,-270.54167)">
    <g
       id="g4909"
       transform="matrix(0.03527778,0,0,-0.03527778,-24.639421,467.66708)"
       style="fill:#000000;stroke:none">
      <path
         id="path4885"
         d="m 2107.1156,5438.0917 c -18.9018,60.0236 -76.7706,108.8917 -142.6058,120.3344 -25.969,4.4587 -66.287,2.5437 -90.6983,-4.4971 -41.431,-11.887 -82.0527,-43.6935 -103.733,-80.6012 -9.8484,-16.8448 -22.4962,-47.3588 -21.9685,-53.1315 0.3903,-4.2666 -11.4461,-15.9784 -25.7248,-25.8888 l -13.3436,-9.0657 -77.5539,-7.0914 c -75.044,-6.8619 -153.5345,-12.0144 -306.6605,-20.1951 -40.044,-2.1431 -118.3293,-6.7705 -173.7064,-10.0626 -92.8653,-5.7076 -101.7187,-5.7579 -112.9471,-1.9761 -6.5499,2.4381 -13.4886,6.3591 -15.247,8.9823 -1.7583,2.623 -4.5523,22.108 -6.7096,45.7004 -5.2769,54.9424 -11.7439,73.0792 -36.1283,101.7255 -72.19378,83.749 -218.44249,58.4814 -258.88999,-44.4253 -11.48478,-29.3953 -12.77926,-84.4326 -2.7253,-111.3523 3.01617,-8.0758 6.76385,-18.6157 8.20384,-23.2926 3.63438,-12.0687 23.77208,-35.7886 49.11167,-58.2736 11.84798,-10.5583 23.83366,-22.6227 26.23168,-26.7058 2.67189,-4.3111 6.41663,-9.2835 8.35709,-11.1306 1.94054,-1.8474 4.43034,-6.9345 5.57341,-11.1323 2.629,-9.3767 -0.0845,-12.9148 -19.81596,-24.0831 -64.25869,-36.2456 -97.48964,-107.3633 -81.68699,-175.0098 9.2624,-40.4053 28.8108,-71.5185 60.4264,-96.2135 20.97805,-16.3037 40.99379,-24.8499 69.03942,-29.8779 17.22903,-2.9801 24.55348,-2.8165 57.59148,1.2168 32.78701,4.0103 40.22476,5.7028 56.51283,13.0131 45.16822,20.8335 78.82832,56.812 92.90732,99.3518 l 5.5818,16.4545 16.2436,5.0284 c 8.8748,2.5831 25.2103,6.6076 36.1617,8.6213 29.1127,5.446 207.813,21.786 304.9679,27.6329 46.2957,2.9678 123.3262,7.4806 171.1279,10.5861 87.3437,5.2027 127.0005,6.0449 155.3876,2.8198 l 15.3344,-1.635 1.856,-14.762 c 4.9254,-37.2588 21.5753,-67.1186 51.434,-91.9744 31.4794,-25.9728 63.3385,-36.7261 106.5092,-35.5626 25.7381,0.835 54.3243,9.2698 76.8611,22.9723 19.4346,11.6473 49.4663,48.5594 57.5778,70.56 6.2429,17.5274 10.5394,48.0369 8.9329,65.6059 -2.3653,28.635 -20.8897,65.1566 -42.714,85.1791 -12.1448,11.0375 -24.2023,29.4222 -27.2659,40.7839 -0.8462,3.7188 2.233,6.0251 15.875,11.8279 58.2179,24.8108 98.4193,75.0538 107.9259,134.385 3.7301,22.8654 1.4782,53.0293 -5.607,75.1589 z"
         inkscape:connector-curvature="0"
         style="stroke-width:0.25203058;fill:#FAC38A;fill-opacity:1" />
    </g>
  </g>
</svg>
