<?xml version="1.0" encoding="UTF-8" standalone="no"?>
<!-- Created with Inkscape (http://www.inkscape.org/) -->

<svg
   xmlns:dc="http://purl.org/dc/elements/1.1/"
   xmlns:cc="http://creativecommons.org/ns#"
   xmlns:rdf="http://www.w3.org/1999/02/22-rdf-syntax-ns#"
   xmlns:svg="http://www.w3.org/2000/svg"
   xmlns="http://www.w3.org/2000/svg"
   xmlns:sodipodi="http://sodipodi.sourceforge.net/DTD/sodipodi-0.dtd"
   xmlns:inkscape="http://www.inkscape.org/namespaces/inkscape"
   width="170"
   height="120"
   viewBox="0 0 44.979165 31.75"
   version="1.1"
   id="svg8"
   inkscape:version="0.92.4 (5da689c313, 2019-01-14)"
   sodipodi:docname="kennel.svg">
  <defs
     id="defs2" />
  <sodipodi:namedview
     id="base"
     pagecolor="#ffffff"
     bordercolor="#666666"
     borderopacity="1.0"
     inkscape:pageopacity="0.0"
     inkscape:pageshadow="2"
     inkscape:zoom="0.98994949"
     inkscape:cx="-157.78689"
     inkscape:cy="2.2715296"
     inkscape:document-units="mm"
     inkscape:current-layer="g4909"
     showgrid="false"
     units="px"
     inkscape:window-width="2560"
     inkscape:window-height="1377"
     inkscape:window-x="-8"
     inkscape:window-y="-8"
     inkscape:window-maximized="1" />
  <metadata
     id="metadata5">
    <rdf:RDF>
      <cc:Work
         rdf:about="">
        <dc:format>image/svg+xml</dc:format>
        <dc:type
           rdf:resource="http://purl.org/dc/dcmitype/StillImage" />
        <dc:title></dc:title>
      </cc:Work>
    </rdf:RDF>
  </metadata>
  <g
     inkscape:label="Layer 1"
     inkscape:groupmode="layer"
     id="layer1"
     transform="translate(0,-265.25)">
    <g
       id="g4909"
       transform="matrix(0.03527778,0,0,-0.03527778,-24.639421,467.66708)"
       style="fill:#000000;stroke:none">
      <path
         id="path4907"
         d="m 1328.5789,5716.3539 c -3.3929,-4.1073 -13.9288,-13.9292 -23.7507,-21.4294 -9.6432,-7.6789 -90.1818,-71.2525 -179.1136,-141.4336 -88.9317,-70.1811 -216.43614,-170.7202 -283.58139,-223.7578 -79.46705,-62.6808 -121.43284,-96.7892 -120.53999,-98.2177 1.42866,-2.5 73.21687,-93.7533 76.4313,-97.325 1.60722,-1.7857 9.82179,3.9287 40.35858,27.858 l 38.21562,30.1797 0.53576,-165.7201 0.35709,-165.8985 h 459.83763 459.8378 v 167.863 167.8629 l 38.93,-30.7153 c 21.2507,-16.7862 39.6441,-31.251 40.7157,-32.144 1.4285,-1.0714 14.8219,14.6435 41.6085,48.3946 21.7866,27.6795 39.4658,50.7161 39.2872,51.4304 0,0.8929 -38.0371,31.2512 -84.2888,67.681 -336.0833,264.1164 -510.7323,402.5141 -519.6612,411.8002 -13.0362,13.7505 -16.9649,14.2862 -25.1795,3.5716 z m 40.0015,-426.265 c 17.1434,-4.286 45.3586,-18.9293 61.7877,-31.9655 45.0019,-35.537 77.1456,-95.3605 89.4677,-166.2558 4.6429,-27.1438 4.2859,-84.2888 -0.893,-111.6111 -6.9645,-38.0371 -22.5008,-79.1099 -40.5371,-107.5038 l -6.6074,-10.3575 h -139.1121 -139.112 l -8.2145,12.679 c -45.5375,70.3596 -56.9664,177.6848 -28.0368,266.4379 7.6789,23.2153 22.6794,54.1091 35.3585,71.7884 11.2503,15.8933 32.501,38.037 45.7158,48.0372 19.8222,14.8222 47.5016,27.144 70.8953,31.4298 11.9648,2.3215 45.716,0.7142 59.2879,-2.6786 z"
         inkscape:connector-curvature="0"
         style="fill:#FAC38A;fill-opacity:1;stroke-width:0.17857775" />
    </g>
  </g>
</svg>
